<svg xmlns="http://www.w3.org/2000/svg" width="20" height="14.667" viewBox="0 0 20 14.667">
  <path id="ic_API_20" d="M13.333,1.381A.336.336,0,0,1,13,1.714H10.667V5.381a.343.343,0,0,1-.333.333h-2A.343.343,0,0,1,8,5.381V1.714H5.667a.329.329,0,0,1-.333-.333.384.384,0,0,1,.1-.25L9.094-2.525a.348.348,0,0,1,.24-.094.33.33,0,0,1,.24.094L13.24,1.141A.348.348,0,0,1,13.333,1.381Zm6.667,3a4.009,4.009,0,0,0-3.094-3.9,2.61,2.61,0,0,0,.427-1.437,2.672,2.672,0,0,0-2.667-2.667,2.636,2.636,0,0,0-1.729.646A5.342,5.342,0,0,0,8-6.286,5.33,5.33,0,0,0,2.667-.952c0,.146.01.292.021.448A4.662,4.662,0,0,0,4.667,8.381H16A4,4,0,0,0,20,4.381Z" transform="translate(0 6.286)" fill="#e7f8ff"/>
</svg>
