<?xml version="1.0" encoding="utf-8"?>
<!-- Generator: Adobe Illustrator 21.1.0, SVG Export Plug-In . SVG Version: 6.00 Build 0)  -->
<svg version="1.1" id="Layer_1" xmlns="http://www.w3.org/2000/svg" xmlns:xlink="http://www.w3.org/1999/xlink" x="0px" y="0px"
	 viewBox="0 0 20 20" style="enable-background:new 0 0 20 20;" xml:space="preserve">
<style type="text/css">
	.st0{fill:#FFFDFD;}
</style>
<g id="Logo_meInvoice" transform="translate(0 0)">
	<g id="Group_5701-5_1_">
		<g id="Group_5702-5_1_">
			<path id="Path_7205-5_1_" class="st0" d="M8.6,16.4c1.4,0.9,3.1,0.8,4.4-0.2c2.2-1.8,5.4-4.8,5.4-4.8l0,0l0.1-0.1l0,0
				c0.7-0.8,0.7-2-0.1-2.8c-0.7-0.8-1.9-0.8-2.7-0.1l0,0l0,0c0,0-3.4,3.2-5.1,4.6c-2.5,2.1-4-0.3-4-0.3C6.7,14.3,7.5,15.6,8.6,16.4z
				"/>
			<path id="Path_7204-5_1_" class="st0" d="M5.3,12.8c1.3,0.9,3,0.8,4.2-0.2c2.1-1.7,5.1-4.6,5.1-4.6l0,0c0.7-0.7,0.7-1.9-0.1-2.6
				l0,0c-0.7-0.7-1.8-0.8-2.6-0.1l0,0c0,0-3.2,3-4.9,4.4c-2.4,1.9-3.8-0.3-3.8-0.3C3.4,10.8,4.2,12,5.3,12.8z"/>
			<path id="Path_7206-5_1_" class="st0" d="M2.7,9.2c1,0.7,2.4,0.7,3.4-0.1c1.6-1.3,4-3.6,4-3.6l0,0l0,0l0,0l0,0
				c0.6-0.6,0.5-1.6-0.1-2.1C9.5,2.8,8.6,2.8,8,3.3l0,0l0,0c0,0-2.5,2.4-3.8,3.5C3.3,7.6,2,7.5,1.3,6.7C1.2,6.6,1.1,6.5,1,6.4
				C1.2,7.5,1.8,8.5,2.7,9.2z"/>
		</g>
	</g>
</g>
</svg>
