<svg id="Group_2028" data-name="Group 2028" xmlns="http://www.w3.org/2000/svg" width="13.034" height="19.5" viewBox="0 0 13.034 19.5">
  <g id="Group_2027" data-name="Group 2027">
    <path id="Path_662" data-name="Path 662" d="M10.664,19.5H2.37A2.235,2.235,0,0,1,0,17.447V2.053A2.235,2.235,0,0,1,2.37,0h8.294a2.235,2.235,0,0,1,2.37,2.053V17.447A2.235,2.235,0,0,1,10.664,19.5ZM2.37,1.026A1.118,1.118,0,0,0,1.185,2.053V17.447A1.118,1.118,0,0,0,2.37,18.474h8.294a1.118,1.118,0,0,0,1.185-1.026V2.053a1.118,1.118,0,0,0-1.185-1.026Z" fill="#e1f6ff"/>
  </g>
  <path id="Path_663" data-name="Path 663" d="M11.694,2.978a2.43,2.43,0,0,0-.626,0,.5.5,0,0,0-.313.411c0,.205-.313.411-.689.411H6.432c-.376,0-.689-.205-.689-.411a.5.5,0,0,0-.313-.411,4.877,4.877,0,0,0-.877,0A1.253,1.253,0,0,0,3.3,4.21V18.168A1.253,1.253,0,0,0,4.553,19.4h7.141a1.253,1.253,0,0,0,1.253-1.232V4.21A1.213,1.213,0,0,0,11.694,2.978Z" transform="translate(-1.607 -1.439)" fill="#e1f6ff"/>
</svg>
